<?xml version="1.0" standalone="no"?>
<!DOCTYPE svg PUBLIC "-//W3C//DTD SVG 20010904//EN"
 "http://www.w3.org/TR/2001/REC-SVG-20010904/DTD/svg10.dtd">
<svg version="1.0" xmlns="http://www.w3.org/2000/svg"
 width="256.000000pt" height="256.000000pt" viewBox="0 0 256.000000 256.000000"
 preserveAspectRatio="xMidYMid meet">
<metadata>
Created by potrace 1.11, written by Peter Selinger 2001-2013
</metadata>
<g transform="translate(0.000000,256.000000) scale(0.100000,-0.100000)"
fill="#000000" stroke="none">
<path d="M1204 2430 c-60 -13 -103 -82 -98 -154 3 -52 22 -84 57 -103 92 -47
195 77 158 190 -18 55 -61 79 -117 67z"/>
<path d="M1224 2085 c-38 -12 -95 -34 -128 -49 -75 -36 -236 -135 -236 -147 0
-5 -4 -9 -10 -9 -13 0 -26 -12 -145 -127 -106 -104 -144 -148 -216 -253 -24
-36 -48 -68 -54 -72 -5 -4 -6 -8 -1 -8 5 0 3 -7 -4 -15 -44 -53 -120 -239
-111 -272 5 -19 18 -4 81 90 165 246 344 437 518 551 52 33 97 61 100 62 4 0
34 13 67 29 71 32 124 51 144 51 8 -1 16 -12 18 -26 9 -69 51 -102 132 -102
56 -1 165 25 189 44 6 6 12 8 12 5 0 -4 30 7 67 24 49 22 73 28 88 22 27 -12
36 -11 62 8 25 17 50 66 39 76 -5 6 -79 -7 -121 -20 -181 -59 -237 -67 -283
-43 -34 18 -45 40 -48 106 -1 25 -2 53 -3 62 -1 16 -26 29 -67 33 -11 2 -51
-7 -90 -20z"/>
<path d="M1887 1724 c-1 -1 -40 -5 -87 -9 -47 -4 -92 -8 -100 -10 -8 -1 -40
-5 -70 -10 -30 -4 -57 -8 -60 -7 -3 0 -15 -4 -26 -9 -12 -4 -42 -11 -65 -14
-72 -11 -300 -90 -414 -144 -89 -42 -297 -168 -315 -190 -3 -3 -27 -24 -55
-45 -50 -40 -184 -171 -240 -236 -47 -54 -162 -217 -205 -290 -36 -61 -113
-209 -115 -220 -1 -3 -9 -23 -19 -45 -39 -90 -78 -185 -80 -197 -1 -7 -4 -17
-7 -23 -4 -5 -5 -21 -4 -35 1 -14 -3 -28 -9 -32 -8 -5 -7 -8 2 -8 9 0 10 -5 3
-18 -6 -11 -6 -24 -1 -32 7 -11 16 0 34 40 14 30 26 60 26 67 0 6 3 13 8 15 4
2 23 35 41 73 44 90 149 268 164 277 7 4 9 8 4 8 -12 0 124 185 198 269 128
144 267 267 394 346 9 6 18 13 21 16 3 3 37 23 75 44 39 21 74 42 80 46 5 5
17 9 26 9 10 0 19 4 21 8 4 10 159 73 250 103 72 23 246 67 298 75 19 3 42 7
50 9 8 2 38 7 65 11 28 3 59 8 70 10 11 2 49 7 85 10 36 3 81 8 100 10 19 2
139 6 265 10 127 3 235 7 241 9 9 3 11 61 2 70 -2 2 -28 6 -58 10 -30 3 -71 7
-90 10 -117 15 -162 18 -323 19 -98 1 -179 1 -180 0z"/>
</g>
</svg>
